<svg xmlns="http://www.w3.org/2000/svg" width="1024" height="600" viewBox="0 0 1024 600" version="1.1"><path d="M 807.346 227.750 L 756.193 228.018 756.593 231.759 C 757.150 236.971, 759 263.139, 759 265.807 L 759 268 809 268 L 859 268 859 248.009 L 859 228.018 910.750 227.750 L 962.500 227.482 910.500 227.482 C 881.900 227.481, 835.481 227.602, 807.346 227.750 M 62 229.213 C 62 231.372, 71.975 343.363, 72.558 347.750 L 73.123 352 118.561 352 L 164 352 164 331.500 L 164 311 137.202 311 L 110.404 311 108.686 291.250 C 107.741 280.387, 106.975 270.938, 106.984 270.250 C 106.996 269.280, 113.375 269, 135.500 269 L 164 269 164 248.500 L 164 228 113 228 C 73.706 228, 62 228.278, 62 229.213 M 460.206 228.750 L 408.913 229.018 409.430 232.259 C 409.714 234.042, 410.425 241.350, 411.009 248.500 C 411.593 255.650, 412.320 263.188, 412.624 265.250 L 413.176 269 462.588 269 L 512 269 512 249.009 L 512 229.018 563.250 228.750 L 614.500 228.481 563 228.481 C 534.675 228.481, 488.418 228.602, 460.206 228.750 M 416.352 315.250 C 416.670 317.587, 417.416 325.800, 418.009 333.500 C 418.602 341.200, 419.302 348.512, 419.563 349.750 L 420.038 352 466.019 352 L 512 352 512 331.500 L 512 311 463.886 311 L 415.773 311 416.352 315.250 M 419.964 372.250 C 419.945 372.938, 421.156 387.734, 422.656 405.131 L 425.383 436.762 467.941 448.516 C 491.349 454.980, 510.950 460.439, 511.500 460.647 C 512.153 460.893, 512.401 453.448, 512.214 439.188 L 511.927 417.351 488.214 410.925 L 464.500 404.500 463.197 390 C 462.481 382.025, 461.685 374.488, 461.428 373.250 C 460.963 371.005, 460.916 371, 440.481 371 C 424.782 371, 419.992 371.292, 419.964 372.250 M 75.061 375.750 C 75.094 377.262, 76.332 391.713, 77.811 407.862 L 80.500 437.224 122.500 448.876 L 164.500 460.529 164 439.065 L 163.500 417.602 141.500 411.694 C 129.400 408.445, 119.381 405.677, 119.235 405.544 C 119.007 405.337, 116.011 375.861, 116.003 373.750 C 116.001 373.337, 106.775 373, 95.500 373 L 75 373 75.061 375.750 M 771.992 405.226 L 774.500 437.453 815.500 448.685 C 838.050 454.862, 857.071 459.935, 857.770 459.958 C 858.766 459.991, 858.982 455.430, 858.770 438.805 L 858.500 417.610 836 411.642 C 823.625 408.359, 813.354 405.564, 813.175 405.429 C 812.857 405.188, 810.088 378.186, 810.030 374.750 C 810.002 373.142, 808.357 373, 789.742 373 L 769.485 373 771.992 405.226" stroke="none" fill="#ebebeb" fill-rule="evenodd"/><path d="M 165 206.491 L 165 226.982 113.264 227.241 C 68.115 227.467, 61.513 227.691, 61.417 229 C 61.354 229.863, 61.486 229.969, 61.727 229.250 C 62.059 228.261, 83.641 228, 165.167 228 L 268.188 228 267.618 232.750 C 267.304 235.363, 266.564 243.575, 265.972 251 C 265.381 258.425, 264.687 265.512, 264.429 266.750 L 263.962 269 214.481 269 L 165 269 165 290 L 165 311 212.776 311 L 260.552 311 254.928 374.015 C 251.835 408.673, 249.123 437.201, 248.902 437.412 C 248.681 437.622, 229.825 442.952, 207 449.257 L 165.500 460.720 165.230 481.860 C 165.082 493.487, 165.307 503.002, 165.730 503.004 C 167.181 503.012, 272.499 473.700, 273.176 473.100 C 273.766 472.577, 299.011 194.145, 299.003 188.250 L 299 186 232 186 L 165 186 165 206.491 M 72.654 352.250 C 72.909 352.663, 93.804 353, 119.086 353 L 165.054 353 164.777 385.337 L 164.500 417.674 173 415.324 C 177.675 414.031, 187.733 411.327, 195.350 409.314 C 206.495 406.369, 209.362 405.248, 210.027 403.577 C 210.482 402.435, 211.588 392.725, 212.485 382 C 213.382 371.275, 214.376 360.143, 214.694 357.263 L 215.272 352.026 143.731 351.763 C 104.384 351.618, 72.399 351.837, 72.654 352.250" stroke="none" fill="#f16529" fill-rule="evenodd"/><path d="M 0.501 163.750 C 0.814 166.363, 7.584 241.817, 15.545 331.427 C 23.507 421.036, 30.203 494.537, 30.427 494.761 C 31.014 495.348, 163.141 532, 164.670 532 C 165.975 532, 299.166 495.213, 299.525 494.753 C 299.634 494.614, 306.321 420.025, 314.386 329 C 322.450 237.975, 329.200 162.488, 329.386 161.250 L 329.723 159 164.827 159 L -0.069 159 0.501 163.750 M 165 206.500 L 165 227 113.559 227 C 85.266 227, 61.923 227.338, 61.686 227.750 C 61.229 228.542, 71.808 349.606, 72.521 351.750 C 72.846 352.726, 83.032 353, 118.969 353 L 165 353 165 385 C 165 402.600, 164.662 416.999, 164.250 416.997 C 163.106 416.992, 119.915 405.254, 119.560 404.852 C 119.390 404.658, 118.631 397.300, 117.875 388.500 L 116.500 372.500 95.213 372.230 L 73.926 371.960 74.492 376.730 C 74.804 379.354, 76.171 394.063, 77.531 409.419 C 78.892 424.774, 80.123 437.456, 80.268 437.601 C 80.413 437.747, 99.537 443.146, 122.766 449.601 L 165 461.336 165 482.168 C 165 493.626, 165.338 503.002, 165.750 503.004 C 167.188 503.013, 272.505 473.695, 273.176 473.100 C 273.766 472.577, 299.011 194.145, 299.003 188.250 L 299 186 232 186 L 165 186 165 206.500 M 107.428 272.250 C 107.713 274.038, 108.421 281.350, 109.002 288.500 C 109.582 295.650, 110.311 303.637, 110.622 306.250 L 111.188 311 138.094 311 L 165 311 165 290 L 165 269 135.955 269 L 106.909 269 107.428 272.250" stroke="none" fill="#e44d26" fill-rule="evenodd"/><path d="M 347.015 159.750 C 347.115 164.851, 376.965 494.298, 377.363 494.696 C 378.052 495.386, 509.683 532, 511.472 532 C 513.899 532, 645.108 495.293, 645.903 494.391 C 646.558 493.649, 676.139 166.096, 676.034 160.750 C 676.002 159.091, 667.487 159, 511.500 159 C 421.025 159, 347.007 159.338, 347.015 159.750 M 511.667 186.667 C 511.300 187.033, 511 196.483, 511 207.667 L 511 228 460 228 L 409 228 409.030 232.250 C 409.046 234.588, 409.708 243.025, 410.500 251 C 411.292 258.975, 411.954 266.288, 411.970 267.250 C 411.998 268.893, 415.035 269, 461.500 269 L 511 269 511 289.500 L 511 310 463.559 310 C 437.466 310, 415.938 310.337, 415.717 310.750 C 415.496 311.163, 416.117 320.050, 417.095 330.500 C 418.074 340.950, 418.903 350.288, 418.937 351.250 C 418.996 352.890, 421.881 353, 465 353 L 511 353 511 384.500 C 511 401.825, 510.663 416.009, 510.250 416.020 C 508.890 416.057, 466.515 404.673, 465.806 404.080 C 465.425 403.761, 464.643 398.550, 464.068 392.500 C 463.494 386.450, 462.761 379.137, 462.440 376.250 L 461.856 371 440.428 371 C 423.940 371, 419.005 371.288, 419.023 372.250 C 419.160 379.565, 424.936 436.320, 425.607 436.942 C 426.098 437.397, 443.825 442.542, 465 448.374 C 486.175 454.207, 505.188 459.454, 507.250 460.036 L 511 461.094 511 482.047 C 511 498.149, 511.289 502.997, 512.250 502.988 C 512.938 502.982, 537.575 496.300, 567 488.139 C 612.700 475.464, 620.535 473.024, 620.743 471.400 C 621.135 468.328, 646 188.564, 646 187.222 C 646 186.271, 631.165 186, 579.167 186 C 542.408 186, 512.033 186.300, 511.667 186.667" stroke="none" fill="#0070ba" fill-rule="evenodd"/><path d="M 807.346 227.750 L 756.193 228.018 756.593 231.759 C 757.150 236.971, 759 263.139, 759 265.807 L 759 268 809 268 L 859 268 859 248.009 L 859 228.018 910.750 227.750 L 962.500 227.482 910.500 227.482 C 881.900 227.481, 835.481 227.602, 807.346 227.750 M 62 229.213 C 62 231.372, 71.975 343.363, 72.558 347.750 L 73.123 352 118.561 352 L 164 352 164 331.500 L 164 311 137.202 311 L 110.404 311 108.686 291.250 C 107.741 280.387, 106.975 270.938, 106.984 270.250 C 106.996 269.280, 113.375 269, 135.500 269 L 164 269 164 248.500 L 164 228 113 228 C 73.706 228, 62 228.278, 62 229.213 M 460.206 228.750 L 408.913 229.018 409.430 232.259 C 409.714 234.042, 410.425 241.350, 411.009 248.500 C 411.593 255.650, 412.320 263.188, 412.624 265.250 L 413.176 269 462.588 269 L 512 269 512 249.009 L 512 229.018 563.250 228.750 L 614.500 228.481 563 228.481 C 534.675 228.481, 488.418 228.602, 460.206 228.750 M 416.352 315.250 C 416.670 317.587, 417.416 325.800, 418.009 333.500 C 418.602 341.200, 419.302 348.512, 419.563 349.750 L 420.038 352 466.019 352 L 512 352 512 331.500 L 512 311 463.886 311 L 415.773 311 416.352 315.250 M 419.964 372.250 C 419.945 372.938, 421.156 387.734, 422.656 405.131 L 425.383 436.762 467.941 448.516 C 491.349 454.980, 510.950 460.439, 511.500 460.647 C 512.153 460.893, 512.401 453.448, 512.214 439.188 L 511.927 417.351 488.214 410.925 L 464.500 404.500 463.197 390 C 462.481 382.025, 461.685 374.488, 461.428 373.250 C 460.963 371.005, 460.916 371, 440.481 371 C 424.782 371, 419.992 371.292, 419.964 372.250 M 75.061 375.750 C 75.094 377.262, 76.332 391.713, 77.811 407.862 L 80.500 437.224 122.500 448.876 L 164.500 460.529 164 439.065 L 163.500 417.602 141.500 411.694 C 129.400 408.445, 119.381 405.677, 119.235 405.544 C 119.007 405.337, 116.011 375.861, 116.003 373.750 C 116.001 373.337, 106.775 373, 95.500 373 L 75 373 75.061 375.750 M 771.992 405.226 L 774.500 437.453 815.500 448.685 C 838.050 454.862, 857.071 459.935, 857.770 459.958 C 858.766 459.991, 858.982 455.430, 858.770 438.805 L 858.500 417.610 836 411.642 C 823.625 408.359, 813.354 405.564, 813.175 405.429 C 812.857 405.188, 810.088 378.186, 810.030 374.750 C 810.002 373.142, 808.357 373, 789.742 373 L 769.485 373 771.992 405.226" stroke="none" fill="#ebebeb" fill-rule="evenodd"/><path d="M 511.667 186.667 C 511.300 187.033, 511 196.483, 511 207.667 L 511 228 562.500 228 C 610.873 228, 614.001 228.106, 614.021 229.750 C 614.066 233.614, 596.192 437.173, 595.779 437.488 C 595.626 437.606, 577.950 442.553, 556.500 448.483 C 535.050 454.412, 516.038 459.675, 514.250 460.179 L 511 461.094 511 482.047 C 511 498.149, 511.289 502.997, 512.250 502.988 C 512.938 502.982, 537.575 496.300, 567 488.139 C 612.700 475.464, 620.535 473.024, 620.743 471.400 C 621.135 468.328, 646 188.564, 646 187.222 C 646 186.271, 631.165 186, 579.167 186 C 542.408 186, 512.033 186.300, 511.667 186.667 M 511 289.490 L 511 309.981 463.333 310.240 C 421.960 310.466, 415.612 310.698, 415.257 312 C 414.956 313.104, 415.080 313.172, 415.729 312.256 C 416.415 311.288, 433.083 310.956, 491.055 310.756 L 565.500 310.500 567.162 294.500 C 568.076 285.700, 569.068 276.363, 569.365 273.750 L 569.906 269 540.453 269 L 511 269 511 289.490 M 464.777 352.750 L 511.054 353.020 510.777 384.999 C 510.534 413.031, 510.685 416.925, 512 416.558 C 512.825 416.327, 523.175 413.555, 535 410.397 C 546.825 407.240, 556.575 404.621, 556.668 404.577 C 556.760 404.534, 557.781 394.374, 558.937 381.999 C 560.092 369.625, 561.294 357.813, 561.607 355.750 L 562.176 352 490.338 352.240 C 435.479 352.423, 429.438 352.543, 464.777 352.750" stroke="none" fill="#29a8e0" fill-rule="evenodd"/><path d="M 164 248.500 L 164 269 214 269 L 264 269 264.030 266.750 C 264.046 265.512, 264.708 257.975, 265.500 250 C 266.292 242.025, 266.954 233.813, 266.970 231.750 L 267 228 215.500 228 L 164 228 164 248.500 M 859 248 L 859 268 888.500 268 C 915.347 268, 918 268.150, 918 269.664 C 918 271.843, 906.185 396.265, 905.472 401.594 L 904.924 405.688 887.212 410.405 C 877.470 413, 867.138 415.802, 864.250 416.633 L 859 418.142 859 439.423 L 859 460.703 868.250 458.046 C 873.337 456.584, 892.233 451.363, 910.241 446.444 L 942.981 437.500 943.482 434.500 C 943.973 431.554, 962.008 231.697, 962.003 229.250 C 962.001 228.266, 951.032 228, 910.500 228 L 859 228 859 248 M 512 249 L 512 269 541 269 C 567.953 269, 570 269.124, 569.997 270.750 C 569.996 271.712, 569.103 280.825, 568.013 291 C 566.924 301.175, 566.025 309.837, 566.016 310.250 C 566.007 310.663, 553.850 311, 539 311 L 512 311 512 331.500 L 512 352 537 352 L 562 352 561.958 354.750 C 561.870 360.551, 557.360 403.974, 556.786 404.547 C 556.287 405.046, 541.769 409.127, 516.250 415.942 L 512 417.077 512 438.647 L 512 460.217 514.250 459.633 C 524.396 457.001, 595.178 437.143, 595.416 436.862 C 595.738 436.480, 605.711 324.856, 606.571 312 C 607.279 301.422, 612.870 238.375, 613.555 233.250 L 614.123 229 563.061 229 L 512 229 512 249 M 164 331.483 L 164 351.967 189.778 352.233 L 215.555 352.500 213.328 377 C 212.104 390.475, 211.079 402.438, 211.051 403.584 C 211.005 405.451, 208.548 406.327, 187.500 411.979 L 164 418.289 164 439.145 C 164 455.172, 164.289 459.996, 165.250 459.981 C 166.781 459.958, 247.885 437.450, 248.435 436.896 C 248.651 436.678, 251.119 410.625, 253.920 379 C 256.721 347.375, 259.287 319.137, 259.621 316.250 L 260.230 311 212.115 311 L 164 311 164 331.483" stroke="none" fill="#ffffff" fill-rule="evenodd"/><path d="M 859 206.500 L 859 227 911 227 C 939.600 227, 963 227.127, 963 227.283 C 963 229.549, 943.944 437.389, 943.716 437.618 C 943.386 437.948, 860.337 461, 859.479 461 C 859.216 461, 859 470.450, 859 482 C 859 498.155, 859.288 502.990, 860.250 502.959 C 860.938 502.936, 885.575 496.265, 915 488.133 C 961.007 475.419, 968.535 473.079, 968.751 471.424 C 969.030 469.286, 994 187.645, 994 186.636 C 994 186.286, 963.625 186, 926.500 186 L 859 186 859 206.500 M 758.321 266.500 C 758.524 268.467, 759.358 268.504, 808.764 268.759 L 859 269.018 859 343.009 C 859 383.704, 859.337 416.992, 859.750 416.982 C 860.888 416.954, 904.201 405.147, 904.433 404.801 C 904.969 404, 917.292 269.958, 916.867 269.534 C 916.598 269.265, 880.987 268.736, 837.731 268.359 C 767.162 267.744, 759.034 267.510, 758.599 266.087 C 758.301 265.111, 758.194 265.270, 758.321 266.500" stroke="none" fill="#8acf17" fill-rule="evenodd"/><path d="M 695.011 159.750 C 695.079 164.582, 724.949 494.283, 725.355 494.689 C 726.050 495.383, 857.670 532, 859.472 532 C 861.902 532, 993.109 495.292, 993.899 494.391 C 994.547 493.653, 1024.117 166.206, 1024.028 160.750 C 1024.001 159.091, 1015.489 159, 859.500 159 C 769.025 159, 695.005 159.338, 695.011 159.750 M 859 206.500 L 859 227 807.500 227 L 756 227 756.094 232.250 C 756.145 235.137, 756.708 244.475, 757.344 253 L 758.500 268.500 808.750 268.759 L 859 269.018 859 343.009 C 859 383.704, 858.880 417, 858.733 417 C 857.936 417, 813.788 405.115, 813.544 404.834 C 813.384 404.650, 812.634 397.300, 811.876 388.500 L 810.500 372.500 789.750 372.230 L 769 371.959 769.023 374.730 C 769.067 379.884, 773.826 437.159, 774.246 437.579 C 774.475 437.808, 792.850 442.963, 815.081 449.035 C 837.311 455.106, 856.288 460.313, 857.250 460.604 C 858.844 461.088, 859 463, 859 482.067 C 859 498.169, 859.288 502.990, 860.250 502.959 C 860.938 502.936, 885.575 496.265, 915 488.133 C 961.007 475.419, 968.535 473.079, 968.751 471.424 C 969.030 469.286, 994 187.645, 994 186.636 C 994 186.286, 963.625 186, 926.500 186 L 859 186 859 206.500" stroke="none" fill="#63a814" fill-rule="evenodd"/><path d="M 31 99.500 L 31 131 42 131 L 53 131 53 120.500 L 53 110 62 110 L 71 110 71 120.500 L 71 131 82 131 L 93 131 93 99.500 L 93 68 82 68 L 71 68 71 78 L 71 88 62 88 L 53 88 53 78 L 53 68 42 68 L 31 68 31 99.500 M 101 78.500 L 101 89 110 89 L 119 89 119 110 L 119 131 130 131 L 141 131 141 110 L 141 89 150 89 L 159 89 159 78.500 L 159 68 130 68 L 101 68 101 78.500 M 168 99.500 L 168 131 178.500 131 L 189 131 189 116.265 L 189 101.530 195.619 111.809 C 199.259 117.462, 202.704 121.932, 203.275 121.742 C 203.845 121.552, 207.167 116.956, 210.656 111.528 L 217 101.661 217 116.330 L 217 131 228 131 L 239 131 239 99.500 L 239 68 227.576 68 L 216.151 68 209.680 78.545 L 203.209 89.089 196.854 78.567 L 190.500 68.045 179.250 68.022 L 168 68 168 99.500 M 248 99.500 L 248 131 274 131 L 300 131 300 120.500 L 300 110 285 110 L 270 110 270 89 L 270 68 259 68 L 248 68 248 99.500 M 415 99.500 L 415 131 444 131 L 473 131 473 120.500 L 473 110 457 110 L 441 110 441 100.500 L 441 91 457 91 L 473 91 473 79.500 L 473 68 444 68 L 415 68 415 99.500 M 482.032 79.750 L 482.064 91.500 494.177 100.750 L 506.289 110 494.144 110 L 482 110 482 120.500 L 482 131 511.500 131 L 541 131 541 120.689 L 541 110.378 528.971 100.939 L 516.943 91.500 528.971 91.219 L 541 90.938 541 79.469 L 541 68 511.500 68 L 482 68 482.032 79.750 M 549 79.446 L 549 90.891 561.152 100.196 L 573.304 109.500 561.152 109.781 L 549 110.062 549 120.531 L 549 131 579 131 L 609 131 608.952 120.750 L 608.903 110.500 596.702 101 L 584.500 91.500 596.750 91.219 L 609 90.938 609 79.469 L 609 68 579 68 L 549 68 549 79.446 M 828 88 L 828 108 811.500 108 L 795 108 795 119.500 L 795 131 824.500 131 L 854 131 854 99.500 L 854 68 841 68 L 828 68 828 88 M 863.218 79.720 L 863.500 91.441 875.236 100.470 L 886.972 109.500 874.986 109.781 L 863 110.062 863 120.531 L 863 131 892.500 131 L 922 131 922 120.612 L 922 110.223 909.832 100.612 L 897.665 91 909.832 91 L 922 91 922 79.500 L 922 68 892.468 68 L 862.937 68 863.218 79.720" stroke="none" fill="#0c6396" fill-rule="evenodd"/><path d="M 781.250 227.749 C 795.413 227.906, 818.588 227.906, 832.750 227.749 C 846.913 227.593, 835.325 227.465, 807 227.465 C 778.675 227.465, 767.087 227.593, 781.250 227.749 M 434.250 228.749 C 448.413 228.906, 471.588 228.906, 485.750 228.749 C 499.913 228.593, 488.325 228.465, 460 228.465 C 431.675 228.465, 420.088 228.593, 434.250 228.749 M 888.182 268.749 L 916.865 269.030 917.296 271.265 C 917.663 273.163, 917.748 273.085, 917.864 270.750 L 918 268 888.750 268.234 L 859.500 268.468 888.182 268.749 M 85.304 372.747 C 91.247 372.924, 100.697 372.923, 106.304 372.745 C 111.912 372.567, 107.050 372.422, 95.500 372.423 C 83.950 372.424, 79.362 372.570, 85.304 372.747 M 779.304 372.747 C 785.247 372.924, 794.697 372.923, 800.304 372.745 C 805.912 372.567, 801.050 372.422, 789.500 372.423 C 777.950 372.424, 773.362 372.570, 779.304 372.747" stroke="none" fill="#b8c576" fill-rule="evenodd"/></svg>