<svg id="visual" viewBox="0 0 900 600" width="900" height="600" xmlns="http://www.w3.org/2000/svg" xmlns:xlink="http://www.w3.org/1999/xlink" version="1.1"><rect x="0" y="0" width="900" height="600" fill="#002233"></rect><path d="M754 600L759.7 585.7C765.3 571.3 776.7 542.7 766.8 514.2C757 485.7 726 457.3 696.7 428.8C667.3 400.3 639.7 371.7 627.7 343C615.7 314.3 619.3 285.7 631.5 257C643.7 228.3 664.3 199.7 679.2 171.2C694 142.7 703 114.3 693.7 85.8C684.3 57.3 656.7 28.7 642.8 14.3L629 0L900 0L900 14.3C900 28.7 900 57.3 900 85.8C900 114.3 900 142.7 900 171.2C900 199.7 900 228.3 900 257C900 285.7 900 314.3 900 343C900 371.7 900 400.3 900 428.8C900 457.3 900 485.7 900 514.2C900 542.7 900 571.3 900 585.7L900 600Z" fill="#0066FF" stroke-linecap="round" stroke-linejoin="miter"></path></svg>